<svg width="93" height="26" viewBox="0 0 93 26" fill="none" xmlns="http://www.w3.org/2000/svg">
<g clip-path="url(#clip0_20005129_190)">
<g clip-path="url(#clip1_20005129_190)">
<g clip-path="url(#clip2_20005129_190)">
<path d="M14.6868 12.1698C14.6868 9.52106 16.928 8.23065 16.9959 8.16273C15.7055 6.32898 13.7359 6.12523 13.0568 6.05731C11.4268 5.85356 9.79677 7.00815 8.91386 7.00815C8.03094 7.00815 6.74052 6.05731 5.31427 6.05731C3.48052 6.05731 1.78261 7.07606 0.899688 8.70606C-1.00198 11.9661 0.424272 16.7202 2.25802 19.3011C3.20885 20.5915 4.2276 22.0177 5.65385 21.9498C7.01219 21.8819 7.55552 21.0669 9.18552 21.0669C10.8155 21.0669 11.2909 21.9498 12.7172 21.8819C14.2114 21.8819 15.0943 20.5915 15.9772 19.3011C17.0639 17.8069 17.4714 16.3806 17.4714 16.3127C17.5393 16.3806 14.6868 15.3619 14.6868 12.1698Z" fill="white"/>
<path d="M11.9701 4.35946C12.7172 3.47654 13.1926 2.25404 13.0568 0.963623C11.9701 1.03154 10.6797 1.71071 9.86469 2.59362C9.18552 3.34071 8.57427 4.63112 8.71011 5.85362C9.93261 5.92154 11.223 5.24237 11.9701 4.35946Z" fill="white"/>
<path d="M34.5184 21.814H32.6167L31.598 18.6219H27.8626L26.8438 21.814H24.9421L28.5417 10.8794H30.783L34.5184 21.814ZM31.1905 17.2636L30.2396 14.4111C30.1717 14.1394 29.968 13.4602 29.6963 12.3736C29.5605 12.849 29.4246 13.5281 29.153 14.4111L28.2021 17.2636H31.1905Z" fill="white"/>
<path d="M43.823 17.8069C43.823 19.1653 43.4834 20.184 42.7363 20.999C42.0572 21.6782 41.2422 22.0178 40.2234 22.0178C39.1367 22.0178 38.3897 21.6103 37.9142 20.8632V25.0061H36.0805V16.5165C36.0805 15.7015 36.0805 14.8186 36.0126 13.9357H37.5747L37.6426 15.1582C38.2538 14.2074 39.1367 13.7319 40.3592 13.7319C41.3101 13.7319 42.1251 14.0715 42.7363 14.8186C43.4834 15.6336 43.823 16.5844 43.823 17.8069ZM41.9892 17.8749C41.9892 17.1278 41.7855 16.4486 41.4459 15.9732C41.0384 15.4298 40.563 15.2261 39.8838 15.2261C39.4084 15.2261 39.0688 15.3619 38.6613 15.6336C38.3217 15.9053 38.0501 16.3128 37.9822 16.7882C37.9142 16.9919 37.9142 17.1957 37.9142 17.3315V18.6219C37.9142 19.1653 38.118 19.7086 38.4576 20.0482C38.7972 20.4557 39.2726 20.6594 39.8838 20.6594C40.563 20.6594 41.1063 20.3878 41.4459 19.9124C41.7855 19.369 41.9892 18.6899 41.9892 17.8749Z" fill="white"/>
<path d="M53.1276 17.8069C53.1276 19.1653 52.788 20.184 52.0409 20.999C51.3617 21.6782 50.5467 22.0178 49.528 22.0178C48.4413 22.0178 47.6942 21.6103 47.2188 20.8632V25.0061H45.3851V16.5165C45.3851 15.7015 45.3851 14.8186 45.3171 13.9357H46.8792L46.9471 15.1582C47.5584 14.2074 48.4413 13.7319 49.6638 13.7319C50.6146 13.7319 51.4296 14.0715 52.0409 14.8186C52.788 15.6336 53.1276 16.5844 53.1276 17.8069ZM51.2938 17.8749C51.2938 17.1278 51.0901 16.4486 50.7505 15.9732C50.343 15.4298 49.8676 15.2261 49.1884 15.2261C48.713 15.2261 48.3734 15.3619 47.9659 15.6336C47.6263 15.9053 47.3546 16.3128 47.2867 16.7882C47.2188 16.9919 47.2188 17.1957 47.2188 17.3315V18.6219C47.2188 19.1653 47.4226 19.7086 47.7621 20.0482C48.1017 20.4557 48.5771 20.6594 49.1884 20.6594C49.8676 20.6594 50.4109 20.3878 50.7505 19.9124C51.0901 19.369 51.2938 18.6899 51.2938 17.8749Z" fill="white"/>
<path d="M63.5867 18.7577C63.5867 19.7085 63.2471 20.4556 62.568 21.0668C61.8209 21.6781 60.8021 22.0177 59.5117 22.0177C58.2892 22.0177 57.3384 21.8139 56.5913 21.3385L56.9988 19.8443C57.8138 20.3197 58.6288 20.5235 59.5796 20.5235C60.2588 20.5235 60.8021 20.3877 61.1417 20.0481C61.5492 19.7764 61.6851 19.3689 61.6851 18.8256C61.6851 18.3502 61.5492 18.0106 61.2096 17.671C60.8701 17.3993 60.3946 17.0598 59.6476 16.856C57.678 16.1089 56.7271 15.0902 56.7271 13.7318C56.7271 12.8489 57.0667 12.1018 57.7459 11.4906C58.4251 10.9472 59.3759 10.6077 60.5305 10.6077C61.5492 10.6077 62.4321 10.8114 63.1113 11.151L62.6359 12.5772C62.0246 12.2377 61.2776 12.1018 60.4626 12.1018C59.8513 12.1018 59.308 12.2377 58.9684 12.5772C58.6967 12.8489 58.493 13.1885 58.493 13.596C58.493 14.0035 58.6967 14.411 59.0363 14.6827C59.308 14.9543 59.8513 15.226 60.6663 15.4977C61.6171 15.9052 62.3642 16.3127 62.7717 16.856C63.3151 17.3314 63.5867 18.0106 63.5867 18.7577Z" fill="white"/>
<path d="M69.4955 15.226H67.5259V19.0972C67.5259 20.0481 67.8655 20.5914 68.5447 20.5914C68.8843 20.5914 69.1559 20.5914 69.3597 20.5235L69.4276 21.8818C69.088 22.0176 68.6126 22.0856 68.0013 22.0856C67.3222 22.0856 66.7109 21.8818 66.3034 21.4743C65.8959 21.0668 65.6922 20.3197 65.6922 19.3689V15.3618H64.5376V14.0714H65.6922V12.6451L67.458 12.1018V14.0714H69.4276V15.226H69.4955Z" fill="white"/>
<path d="M78.4605 17.8069C78.4605 19.0294 78.1209 20.0481 77.3738 20.7952C76.6267 21.6102 75.608 22.0177 74.3855 22.0177C73.163 22.0177 72.28 21.6102 71.533 20.8631C70.8538 20.1161 70.4463 19.0973 70.4463 17.9427C70.4463 16.7202 70.7859 15.7015 71.533 14.9544C72.28 14.2073 73.2309 13.7998 74.4534 13.7998C75.6759 13.7998 76.6267 14.2073 77.3059 14.9544C78.1209 15.6336 78.4605 16.6523 78.4605 17.8069ZM76.6267 17.8748C76.6267 17.1277 76.4909 16.5165 76.1513 15.9731C75.7438 15.3619 75.2005 15.0223 74.5213 15.0223C73.7742 15.0223 73.2309 15.3619 72.8913 15.9731C72.5517 16.5165 72.4159 17.1277 72.4159 17.8748C72.4159 18.6219 72.5517 19.2331 72.8913 19.7765C73.2988 20.3877 73.8421 20.7273 74.5213 20.7273C75.2005 20.7273 75.7438 20.3877 76.1513 19.7765C76.423 19.2331 76.6267 18.6219 76.6267 17.8748Z" fill="white"/>
<path d="M84.3013 15.4978C84.0976 15.4978 83.9617 15.4299 83.758 15.4299C83.1467 15.4299 82.6034 15.6336 82.2638 16.109C81.9921 16.5165 81.7884 17.0598 81.7884 17.6711V21.814H79.9546V16.3807C79.9546 15.4978 79.9546 14.6148 79.8867 13.8678H81.4488L81.5167 15.3619H81.5846C81.7884 14.8186 82.0601 14.4111 82.4676 14.1394C82.8751 13.8678 83.2826 13.7319 83.758 13.7319C83.8938 13.7319 84.0976 13.7319 84.2334 13.7319V15.4978H84.3013Z" fill="white"/>
<path d="M92.3834 17.5351C92.3834 17.8747 92.3834 18.1463 92.3155 18.3501H86.8822C86.8822 19.0972 87.1538 19.7084 87.6972 20.1159C88.1726 20.4555 88.7159 20.6592 89.463 20.6592C90.278 20.6592 91.0251 20.5234 91.6363 20.2517L91.908 21.4742C91.1609 21.8138 90.2101 21.9497 89.1913 21.9497C87.9009 21.9497 86.9501 21.6101 86.203 20.863C85.4559 20.1159 85.1163 19.1651 85.1163 17.9426C85.1163 16.7201 85.4559 15.7692 86.1351 14.9542C86.8142 14.1392 87.7651 13.6638 88.9876 13.6638C90.1422 13.6638 91.0251 14.0713 91.6363 14.9542C92.1117 15.7013 92.3834 16.5163 92.3834 17.5351ZM90.6855 17.0597C90.6855 16.5163 90.5497 16.1088 90.3459 15.7013C90.0063 15.2259 89.5309 14.9542 88.9197 14.9542C88.3084 14.9542 87.833 15.2259 87.4934 15.7013C87.2217 16.1088 87.018 16.5163 86.9501 17.0597H90.6855Z" fill="white"/>
<path d="M30.5792 4.15559C30.5792 5.10642 30.3076 5.8535 29.6963 6.32892C29.153 6.80434 28.338 7.00809 27.3192 7.00809C26.8438 7.00809 26.3684 7.00809 26.0288 6.94017V1.64267C26.5042 1.57475 26.9796 1.50684 27.523 1.50684C28.4738 1.50684 29.2209 1.71059 29.6963 2.11809C30.3076 2.5935 30.5792 3.27267 30.5792 4.15559ZM29.6963 4.15559C29.6963 3.54434 29.4926 3.06892 29.153 2.72934C28.8134 2.38975 28.338 2.25392 27.6588 2.25392C27.3871 2.25392 27.1155 2.25392 26.9117 2.32184V6.32892C27.0476 6.32892 27.2513 6.32892 27.523 6.32892C28.2021 6.32892 28.7455 6.12517 29.0851 5.78559C29.4926 5.37809 29.6963 4.83475 29.6963 4.15559Z" fill="white"/>
<path d="M35.5372 4.97051C35.5372 5.58176 35.3334 6.05718 34.9939 6.46468C34.6543 6.87218 34.1109 7.07593 33.5676 7.07593C32.9564 7.07593 32.5489 6.87218 32.1414 6.5326C31.8018 6.1251 31.598 5.64968 31.598 5.10635C31.598 4.4951 31.8018 4.01968 32.1414 3.61218C32.4809 3.20468 32.9564 3.06885 33.5676 3.06885C34.1789 3.06885 34.6543 3.2726 34.9939 3.61218C35.4014 3.88385 35.5372 4.35926 35.5372 4.97051ZM34.6543 4.97051C34.6543 4.63093 34.5864 4.29135 34.4505 4.01968C34.2468 3.6801 33.9751 3.54426 33.6355 3.54426C33.2959 3.54426 33.0243 3.6801 32.8205 4.01968C32.6847 4.29135 32.6168 4.56301 32.6168 4.97051C32.6168 5.3101 32.6847 5.64968 32.8205 5.92135C33.0243 6.26093 33.2959 6.39676 33.6355 6.39676C33.9751 6.39676 34.2468 6.26093 34.4505 5.92135C34.5864 5.64968 34.6543 5.37801 34.6543 4.97051Z" fill="white"/>
<path d="M42.193 3.06885L40.9705 6.9401H40.1555L39.6121 5.24218C39.4763 4.83468 39.4084 4.42718 39.2725 4.01968C39.2046 4.42718 39.0688 4.83468 38.933 5.24218L38.3896 6.9401H37.5746L36.42 3.06885H37.303L37.7784 4.9026C37.9142 5.3101 37.9821 5.78551 38.05 6.1251C38.118 5.78551 38.2538 5.37801 38.3896 4.9026L38.933 3.06885H39.68L40.2234 4.9026C40.3592 5.37801 40.4271 5.78551 40.563 6.19301C40.6309 5.78551 40.6988 5.37801 40.8346 4.9026L41.31 3.06885H42.193Z" fill="white"/>
<path d="M46.8113 6.94014H45.9284V4.69889C45.9284 4.01973 45.6567 3.68014 45.1134 3.68014C44.8417 3.68014 44.638 3.74806 44.5021 3.95181C44.3663 4.15556 44.2305 4.35931 44.2305 4.63098V6.94014H43.3475V4.15556C43.3475 3.81598 43.3475 3.47639 43.3475 3.06889H44.0946L44.1625 3.68014C44.2984 3.47639 44.4342 3.34056 44.6379 3.20473C44.9096 3.06889 45.1134 3.00098 45.453 3.00098C45.7925 3.00098 46.1321 3.13681 46.4038 3.34056C46.7434 3.61223 46.8792 4.08764 46.8792 4.63098V6.94014H46.8113Z" fill="white"/>
<path d="M49.2563 6.94006H48.3734V1.30298H49.2563V6.94006Z" fill="white"/>
<path d="M54.4179 4.97051C54.4179 5.58176 54.2142 6.05718 53.8746 6.46468C53.535 6.87218 52.9917 7.07593 52.4483 7.07593C51.8371 7.07593 51.4296 6.87218 51.0221 6.5326C50.6825 6.1251 50.4788 5.64968 50.4788 5.10635C50.4788 4.4951 50.6825 4.01968 51.0221 3.61218C51.3617 3.20468 51.8371 3.06885 52.4483 3.06885C53.0596 3.06885 53.535 3.2726 53.8746 3.61218C54.2821 3.88385 54.4179 4.35926 54.4179 4.97051ZM53.535 4.97051C53.535 4.63093 53.4671 4.29135 53.3313 4.01968C53.1275 3.6801 52.8558 3.54426 52.5163 3.54426C52.1767 3.54426 51.905 3.6801 51.7013 4.01968C51.5654 4.29135 51.4975 4.56301 51.4975 4.97051C51.4975 5.3101 51.5654 5.64968 51.7013 5.92135C51.905 6.26093 52.1767 6.39676 52.5163 6.39676C52.8558 6.39676 53.1275 6.26093 53.3313 5.92135C53.4671 5.64968 53.535 5.37801 53.535 4.97051Z" fill="white"/>
<path d="M58.6968 6.94014H57.8818L57.8139 6.46473C57.5422 6.80431 57.1347 7.00806 56.6593 7.00806C56.2518 7.00806 55.9801 6.87223 55.7764 6.66848C55.5726 6.46473 55.4368 6.19306 55.4368 5.85348C55.4368 5.37806 55.6405 5.03848 56.048 4.76681C56.4555 4.49514 56.9989 4.42723 57.7459 4.42723V4.35931C57.7459 3.81598 57.4743 3.61223 56.9309 3.61223C56.5234 3.61223 56.1839 3.68014 55.9122 3.88389L55.7084 3.34056C56.048 3.13681 56.5234 3.00098 57.0668 3.00098C58.0855 3.00098 58.6289 3.54431 58.6289 4.63098V6.05723C58.6968 6.39681 58.6968 6.73639 58.6968 6.94014ZM57.8139 5.58181V5.03848C56.863 5.03848 56.3197 5.31014 56.3197 5.85348C56.3197 6.05723 56.3876 6.19306 56.5234 6.32889C56.6593 6.46473 56.7951 6.46473 56.9309 6.46473C57.1347 6.46473 57.3384 6.39681 57.4743 6.26098C57.6101 6.12514 57.7459 5.98931 57.8139 5.78556C57.8139 5.71764 57.8139 5.64973 57.8139 5.58181Z" fill="white"/>
<path d="M63.7905 6.94006H62.9755L62.9076 6.32881C62.6359 6.80423 62.2284 7.00798 61.6172 7.00798C61.1418 7.00798 60.7343 6.87214 60.4626 6.46464C60.123 6.12506 59.9872 5.64965 59.9872 5.0384C59.9872 4.42715 60.1909 3.88381 60.5305 3.54423C60.8701 3.20465 61.2776 3.0009 61.753 3.0009C62.2963 3.0009 62.6359 3.20465 62.9076 3.54423V1.30298H63.7905V5.92131C63.7226 6.2609 63.7226 6.60048 63.7905 6.94006ZM62.8397 5.31006V4.63089C62.8397 4.49506 62.8397 4.42715 62.8397 4.35923C62.7718 4.15548 62.6359 4.01965 62.5001 3.88381C62.3643 3.74798 62.1605 3.68006 61.8888 3.68006C61.5493 3.68006 61.2776 3.8159 61.1418 4.08756C60.938 4.35923 60.8701 4.69881 60.8701 5.0384C60.8701 5.4459 60.938 5.71756 61.1418 5.98923C61.3455 6.26089 61.6172 6.39673 61.8888 6.39673C62.1605 6.39673 62.4322 6.2609 62.568 6.05715C62.7718 5.78548 62.8397 5.58173 62.8397 5.31006Z" fill="white"/>
<path d="M71.3292 4.97051C71.3292 5.58176 71.1254 6.05718 70.7858 6.46468C70.4463 6.87218 69.9029 7.07593 69.3596 7.07593C68.7483 7.07593 68.3409 6.87218 67.9334 6.5326C67.5938 6.1251 67.39 5.64968 67.39 5.10635C67.39 4.4951 67.5938 4.01968 67.9334 3.61218C68.2729 3.20468 68.7483 3.06885 69.3596 3.06885C69.9708 3.06885 70.4463 3.2726 70.7858 3.61218C71.1933 3.88385 71.3292 4.35926 71.3292 4.97051ZM70.4463 4.97051C70.4463 4.63093 70.3784 4.29135 70.2425 4.01968C70.0388 3.6801 69.7671 3.54426 69.4275 3.54426C69.0879 3.54426 68.8163 3.6801 68.6125 4.01968C68.4767 4.29135 68.4088 4.56301 68.4088 4.97051C68.4088 5.3101 68.4767 5.64968 68.6125 5.92135C68.8163 6.26093 69.0879 6.39676 69.4275 6.39676C69.7671 6.39676 70.0388 6.26093 70.2425 5.92135C70.3104 5.64968 70.4463 5.37801 70.4463 4.97051Z" fill="white"/>
<path d="M76.0834 6.94014H75.2005V4.69889C75.2005 4.01973 74.9288 3.68014 74.3855 3.68014C74.1138 3.68014 73.91 3.74806 73.7742 3.95181C73.6384 4.15556 73.5025 4.35931 73.5025 4.63098V6.94014H72.6196V4.15556C72.6196 3.81598 72.6196 3.47639 72.6196 3.06889H73.3667L73.4346 3.68014C73.5705 3.47639 73.7063 3.34056 73.91 3.20473C74.1817 3.06889 74.3855 3.00098 74.725 3.00098C75.0646 3.00098 75.4042 3.13681 75.6759 3.34056C76.0155 3.61223 76.1513 4.08764 76.1513 4.63098V6.94014H76.0834Z" fill="white"/>
<path d="M82.0601 3.68029H81.1092V5.58196C81.1092 6.05738 81.313 6.32904 81.6526 6.32904C81.7884 6.32904 81.9242 6.32904 82.0601 6.26113V6.94029C81.8563 7.00821 81.6526 7.00821 81.3809 7.00821C81.0413 7.00821 80.7696 6.87238 80.5659 6.66863C80.3621 6.46488 80.2942 6.12529 80.2942 5.64988V3.68029H79.683V3.00113H80.2942V2.32196L81.1771 2.05029V3.00113H82.128L82.0601 3.68029Z" fill="white"/>
<path d="M86.7463 6.94006H85.8634V4.76673C85.8634 4.08756 85.5918 3.74798 85.0484 3.74798C84.6409 3.74798 84.3693 3.95173 84.2334 4.35923C84.2334 4.42715 84.1655 4.56298 84.1655 4.69881V7.00798H83.2826V1.30298H84.1655V3.61215C84.4372 3.20465 84.8447 3.0009 85.388 3.0009C85.7276 3.0009 86.0672 3.13673 86.2709 3.34048C86.5426 3.61215 86.7463 4.08756 86.7463 4.63089V6.94006Z" fill="white"/>
<path d="M91.5684 4.83473C91.5684 4.97056 91.5684 5.10639 91.5684 5.24223H88.9196C88.9196 5.64973 89.0554 5.92139 89.3271 6.12514C89.5309 6.32889 89.8705 6.39681 90.21 6.39681C90.6175 6.39681 90.9571 6.32889 91.2967 6.19306L91.4325 6.80431C91.025 6.94014 90.6175 7.07598 90.0742 7.07598C89.463 7.07598 88.9875 6.87223 88.6479 6.53264C88.3084 6.19306 88.1046 5.71764 88.1046 5.10639C88.1046 4.49514 88.2404 4.01973 88.58 3.61223C88.9196 3.20473 89.395 3.00098 90.0063 3.00098C90.5496 3.00098 91.025 3.20473 91.2967 3.61223C91.4325 3.95181 91.5684 4.35931 91.5684 4.83473ZM90.7534 4.56306C90.7534 4.29139 90.6855 4.08764 90.5496 3.88389C90.4138 3.61223 90.1421 3.54431 89.8705 3.54431C89.5988 3.54431 89.3271 3.68014 89.1913 3.88389C89.0555 4.08764 88.9875 4.29139 88.9196 4.56306H90.7534Z" fill="white"/>
</g>
</g>
</g>
<defs>
<clipPath id="clip0_20005129_190">
<rect width="92.4" height="24.45" fill="white" transform="translate(0 0.759766)"/>
</clipPath>
<clipPath id="clip1_20005129_190">
<rect width="92.4" height="24.45" fill="white" transform="translate(0 0.759766)"/>
</clipPath>
<clipPath id="clip2_20005129_190">
<rect width="92.3667" height="24.45" fill="white" transform="translate(0.0167236 0.759766)"/>
</clipPath>
</defs>
</svg>
