<svg width="18" height="14" viewBox="0 0 18 14" fill="none" xmlns="http://www.w3.org/2000/svg">
<path d="M15.3607 3.66412C15.3715 3.80995 15.3715 3.95495 15.3715 4.09995C15.3715 8.53745 11.994 13.6508 5.8215 13.6508C3.91984 13.6508 2.15317 13.1 0.666504 12.1433C0.936504 12.1741 1.1965 12.185 1.47734 12.185C3.0465 12.185 4.49067 11.655 5.64484 10.7508C4.169 10.72 2.93234 9.75329 2.50567 8.42329C2.71317 8.45412 2.9215 8.47495 3.13984 8.47495C3.44067 8.47495 3.74317 8.43329 4.024 8.36079C2.48484 8.04912 1.33234 6.69829 1.33234 5.06662V5.02495C1.77984 5.27412 2.299 5.42995 2.849 5.45079C1.94484 4.84912 1.35234 3.81995 1.35234 2.65579C1.35234 2.03245 1.51817 1.46079 1.809 0.962454C3.4615 2.99829 5.94567 4.32912 8.73067 4.47495C8.679 4.22495 8.64734 3.96579 8.64734 3.70579C8.64734 1.85579 10.144 0.349121 12.004 0.349121C12.9707 0.349121 13.8432 0.754121 14.4565 1.40912C15.2148 1.26329 15.9415 0.982454 16.5865 0.598288C16.3373 1.37745 15.8065 2.03245 15.1107 2.44829C15.7865 2.37495 16.4415 2.18829 17.0432 1.92829C16.5865 2.59329 16.0157 3.18579 15.3607 3.66412Z" fill="#33354D"/>
</svg>
